<svg width="1440" height="900" viewBox="0 0 1440 900" fill="none" xmlns="http://www.w3.org/2000/svg">
<g clip-path="url(#clip0_1_200)">
<rect width="1440" height="900" fill="url(#paint0_linear_1_200)"/>
<ellipse cx="1369.78" cy="70.4976" rx="52.2778" ry="52.8434" transform="rotate(-114.528 1369.78 70.4976)" fill="url(#paint1_linear_1_200)"/>
<ellipse cx="660" cy="-15.1629" rx="240.668" ry="243.02" transform="rotate(-114.528 660 -15.1629)" fill="url(#paint2_linear_1_200)"/>
<ellipse cx="389.5" cy="868.951" rx="263.275" ry="268.428" transform="rotate(-114.528 389.5 868.951)" fill="url(#paint3_linear_1_200)"/>
<g filter="url(#filter0_bd_1_200)">
<ellipse cx="1223" cy="843.494" rx="269" ry="246.494" fill="white" fill-opacity="0.6" shape-rendering="crispEdges"/>
<path d="M1491 843.494C1491 978.996 1371.1 1088.99 1223 1088.99C1074.9 1088.99 955 978.996 955 843.494C955 707.992 1074.9 598 1223 598C1371.1 598 1491 707.992 1491 843.494Z" stroke="url(#paint4_linear_1_200)" stroke-width="2" shape-rendering="crispEdges"/>
</g>
<g filter="url(#filter1_d_1_200)">
<ellipse cx="202.96" cy="208.024" rx="37.44" ry="31.9756" fill="white" fill-opacity="0.6" shape-rendering="crispEdges"/>
<path d="M239.4 208.024C239.4 224.99 223.239 239 202.96 239C182.681 239 166.52 224.99 166.52 208.024C166.52 191.059 182.681 177.049 202.96 177.049C223.239 177.049 239.4 191.059 239.4 208.024Z" stroke="url(#paint5_linear_1_200)" stroke-width="2" shape-rendering="crispEdges"/>
</g>
<g filter="url(#filter2_bd_1_200)">
<ellipse cx="139" cy="116.268" rx="117" ry="104.268" fill="white" fill-opacity="0.6" shape-rendering="crispEdges"/>
<path d="M255 116.268C255 173.197 203.176 219.537 139 219.537C74.8235 219.537 23 173.197 23 116.268C23 59.34 74.8235 13 139 13C203.176 13 255 59.34 255 116.268Z" stroke="url(#paint6_linear_1_200)" stroke-width="2" shape-rendering="crispEdges"/>
</g>
</g>
<defs>
<filter id="filter0_bd_1_200" x="904" y="567" width="638" height="622.988" filterUnits="userSpaceOnUse" color-interpolation-filters="sRGB">
<feFlood flood-opacity="0" result="BackgroundImageFix"/>
<feGaussianBlur in="BackgroundImageFix" stdDeviation="15"/>
<feComposite in2="SourceAlpha" operator="in" result="effect1_backgroundBlur_1_200"/>
<feColorMatrix in="SourceAlpha" type="matrix" values="0 0 0 0 0 0 0 0 0 0 0 0 0 0 0 0 0 0 127 0" result="hardAlpha"/>
<feOffset dy="50"/>
<feGaussianBlur stdDeviation="25"/>
<feComposite in2="hardAlpha" operator="out"/>
<feColorMatrix type="matrix" values="0 0 0 0 0 0 0 0 0 0 0 0 0 0 0 0 0 0 0.1 0"/>
<feBlend mode="normal" in2="effect1_backgroundBlur_1_200" result="effect2_dropShadow_1_200"/>
<feBlend mode="normal" in="SourceGraphic" in2="effect2_dropShadow_1_200" result="shape"/>
</filter>
<filter id="filter1_d_1_200" x="115.52" y="176.049" width="174.88" height="163.951" filterUnits="userSpaceOnUse" color-interpolation-filters="sRGB">
<feFlood flood-opacity="0" result="BackgroundImageFix"/>
<feColorMatrix in="SourceAlpha" type="matrix" values="0 0 0 0 0 0 0 0 0 0 0 0 0 0 0 0 0 0 127 0" result="hardAlpha"/>
<feOffset dy="50"/>
<feGaussianBlur stdDeviation="25"/>
<feComposite in2="hardAlpha" operator="out"/>
<feColorMatrix type="matrix" values="0 0 0 0 0 0 0 0 0 0 0 0 0 0 0 0 0 0 0.1 0"/>
<feBlend mode="normal" in2="BackgroundImageFix" result="effect1_dropShadow_1_200"/>
<feBlend mode="normal" in="SourceGraphic" in2="effect1_dropShadow_1_200" result="shape"/>
</filter>
<filter id="filter2_bd_1_200" x="-28" y="-18" width="334" height="338.537" filterUnits="userSpaceOnUse" color-interpolation-filters="sRGB">
<feFlood flood-opacity="0" result="BackgroundImageFix"/>
<feGaussianBlur in="BackgroundImageFix" stdDeviation="15"/>
<feComposite in2="SourceAlpha" operator="in" result="effect1_backgroundBlur_1_200"/>
<feColorMatrix in="SourceAlpha" type="matrix" values="0 0 0 0 0 0 0 0 0 0 0 0 0 0 0 0 0 0 127 0" result="hardAlpha"/>
<feOffset dy="50"/>
<feGaussianBlur stdDeviation="25"/>
<feComposite in2="hardAlpha" operator="out"/>
<feColorMatrix type="matrix" values="0 0 0 0 0 0 0 0 0 0 0 0 0 0 0 0 0 0 0.1 0"/>
<feBlend mode="normal" in2="effect1_backgroundBlur_1_200" result="effect2_dropShadow_1_200"/>
<feBlend mode="normal" in="SourceGraphic" in2="effect2_dropShadow_1_200" result="shape"/>
</filter>
<linearGradient id="paint0_linear_1_200" x1="0" y1="0" x2="720" y2="900" gradientUnits="userSpaceOnUse">
<stop stop-color="#F9D6A0"/>
<stop offset="1" stop-color="#ED8260"/>
</linearGradient>
<linearGradient id="paint1_linear_1_200" x1="1333.93" y1="23.6934" x2="1370.46" y2="123.088" gradientUnits="userSpaceOnUse">
<stop stop-color="#9C76D8"/>
<stop offset="1" stop-color="#E29198"/>
</linearGradient>
<linearGradient id="paint2_linear_1_200" x1="494.97" y1="-230.409" x2="662.855" y2="226.808" gradientUnits="userSpaceOnUse">
<stop stop-color="#9C76D8"/>
<stop offset="1" stop-color="#E29198"/>
</linearGradient>
<linearGradient id="paint3_linear_1_200" x1="208.969" y1="631.201" x2="395.773" y2="1135.05" gradientUnits="userSpaceOnUse">
<stop stop-color="#9C76D8"/>
<stop offset="1" stop-color="#E29198"/>
</linearGradient>
<linearGradient id="paint4_linear_1_200" x1="1223" y1="597" x2="1223" y2="1089.99" gradientUnits="userSpaceOnUse">
<stop stop-color="white" stop-opacity="0.62"/>
<stop offset="1" stop-color="white" stop-opacity="0.25"/>
</linearGradient>
<linearGradient id="paint5_linear_1_200" x1="202.96" y1="176.049" x2="202.96" y2="240" gradientUnits="userSpaceOnUse">
<stop stop-color="white" stop-opacity="0.62"/>
<stop offset="1" stop-color="white" stop-opacity="0.25"/>
</linearGradient>
<linearGradient id="paint6_linear_1_200" x1="139" y1="12" x2="139" y2="220.537" gradientUnits="userSpaceOnUse">
<stop stop-color="white" stop-opacity="0.62"/>
<stop offset="1" stop-color="white" stop-opacity="0.25"/>
</linearGradient>
<clipPath id="clip0_1_200">
<rect width="1440" height="900" fill="white"/>
</clipPath>
</defs>
</svg>
