<svg width="29" height="29" viewBox="0 0 29 29" fill="none" xmlns="http://www.w3.org/2000/svg">
<path d="M17.065 13.4052C17.1714 14.1298 16.8355 14.7106 16.057 15.1477C15.2786 15.5847 14.5368 15.6192 13.8315 15.2512C13.3126 15.0557 12.9566 14.7221 12.7637 14.2506C12.5707 13.779 12.5674 13.3075 12.7537 12.8359C12.94 12.3644 13.286 12.0308 13.7916 11.8353C14.2706 11.6283 14.753 11.5593 15.2387 11.6283C15.7244 11.6973 16.1502 11.9015 16.5161 12.2407C16.882 12.58 17.065 12.9682 17.065 13.4052ZM19.2805 13.043C19.0942 11.8123 18.3424 10.8692 17.0251 10.2137C15.7077 9.5581 14.397 9.48334 13.093 9.98939C12.2547 10.3114 11.5861 10.8204 11.0871 11.5162C10.5881 12.212 10.3585 12.9567 10.3985 13.7503C10.4517 14.7969 10.9673 15.6882 11.9453 16.4243C12.9234 17.1604 14.0245 17.4824 15.2487 17.3904C16.4595 17.2984 17.4708 16.8153 18.2825 15.9412C19.0942 15.0672 19.4269 14.1011 19.2805 13.043ZM24.0509 3.6925C23.7847 3.38197 23.4122 3.12607 22.9331 2.9248C22.4541 2.72353 22.0682 2.59702 21.7755 2.54526C21.4827 2.49351 21.0104 2.42162 20.3583 2.32962C16.4862 1.78906 12.7204 1.80056 9.06116 2.36412C8.48898 2.44463 8.04987 2.51363 7.74382 2.57114C7.43777 2.62865 7.07184 2.75516 6.64604 2.95068C6.22023 3.1462 5.88757 3.39347 5.64805 3.6925C6.04725 4.01454 6.55289 4.27619 7.16499 4.47746C7.77709 4.67873 8.2661 4.80524 8.63202 4.857C8.99795 4.90875 9.58011 4.97488 10.3785 5.05539C13.4124 5.38892 16.393 5.39468 19.3204 5.07264C20.1587 4.98063 20.7542 4.91163 21.1068 4.86562C21.4594 4.81962 21.9418 4.69598 22.5539 4.49471C23.166 4.29344 23.665 4.02604 24.0509 3.6925ZM25.1886 21.5481C25.0821 21.8471 24.979 22.287 24.8792 22.8678C24.7794 23.4486 24.6863 23.9317 24.5998 24.317C24.5133 24.7023 24.3237 25.1048 24.0309 25.5246C23.7382 25.9444 23.3523 26.2693 22.8733 26.4993C21.7289 27.0514 20.4681 27.4625 19.0909 27.7328C17.7137 28.0031 16.3697 28.1296 15.059 28.1123C13.7484 28.0951 12.4077 27.9887 11.0372 27.7932C10.4251 27.7012 9.88283 27.5977 9.41045 27.4827C8.93807 27.3676 8.4291 27.2124 7.88354 27.0169C7.33797 26.8213 6.85229 26.5712 6.42648 26.2664C6.00067 25.9616 5.65471 25.608 5.38858 25.2054C5.05592 24.1013 4.67668 22.4221 4.25088 20.1679L4.37063 19.8919L4.72991 19.7366C7.69725 21.4388 11.0671 22.2899 14.8395 22.2899C18.6119 22.2899 21.9884 21.4388 24.969 19.7366C25.2485 19.8056 25.4081 19.9379 25.4481 20.1334C25.488 20.3289 25.4547 20.5877 25.3483 20.9097C25.2418 21.2318 25.1886 21.4446 25.1886 21.5481ZM28.8013 4.96913C28.4553 6.88983 27.7168 10.6565 26.5858 16.269C26.5192 16.6141 26.3396 16.9361 26.0468 17.2351C25.7541 17.5342 25.4647 17.7642 25.1786 17.9252C24.8925 18.0862 24.5299 18.2645 24.0908 18.46C20.7376 19.9091 16.6791 20.4152 11.9154 19.9782C8.61539 19.6676 5.99402 18.8683 4.05128 17.5802C3.85168 17.4421 3.68202 17.2898 3.54231 17.123C3.40259 16.9562 3.28948 16.755 3.20299 16.5192C3.1165 16.2834 3.05662 16.0879 3.02336 15.9326C2.99009 15.7774 2.95017 15.5502 2.9036 15.2512C2.85702 14.9521 2.82043 14.7509 2.79382 14.6474C2.67406 14.0723 2.49775 13.2097 2.26489 12.0596C2.03202 10.9095 1.84573 9.98076 1.70602 9.27344C1.5663 8.56612 1.40995 7.71791 1.23696 6.72881C1.06398 5.73971 0.91761 4.83112 0.797852 4.00303C0.837771 3.704 0.954202 3.4251 1.14715 3.16633C1.34009 2.90755 1.54967 2.6919 1.77588 2.51938C2.00209 2.34687 2.30148 2.17435 2.67406 2.00183C3.04664 1.82931 3.35269 1.69993 3.59221 1.61367C3.83172 1.52741 4.15108 1.42102 4.55027 1.29451C6.21358 0.765457 8.29604 0.39742 10.7976 0.190399C15.8408 -0.235145 20.3384 0.0523846 24.2904 1.05299C26.3529 1.58204 27.7833 2.28361 28.5817 3.1577C28.7946 3.38772 28.9044 3.681 28.9111 4.03754C28.9177 4.39407 28.8811 4.70461 28.8013 4.96913Z" fill="#031D36"/>
</svg>
