<svg width="30" height="20" viewBox="0 0 30 20" fill="none" xmlns="http://www.w3.org/2000/svg">
<path fill-rule="evenodd" clip-rule="evenodd" d="M0 17.9688C0 18.3417 0.148158 18.6994 0.411881 18.9631C0.675604 19.2268 1.03329 19.375 1.40625 19.375H28.5938C28.9667 19.375 29.3244 19.2268 29.5881 18.9631C29.8518 18.6994 30 18.3417 30 17.9688C30 17.5958 29.8518 17.2381 29.5881 16.9744C29.3244 16.7107 28.9667 16.5625 28.5938 16.5625H1.40625C1.03329 16.5625 0.675604 16.7107 0.411881 16.9744C0.148158 17.2381 0 17.5958 0 17.9688H0ZM0 10C0 10.373 0.148158 10.7306 0.411881 10.9944C0.675604 11.2581 1.03329 11.4062 1.40625 11.4062H28.5938C28.9667 11.4062 29.3244 11.2581 29.5881 10.9944C29.8518 10.7306 30 10.373 30 10C30 9.62704 29.8518 9.26935 29.5881 9.00563C29.3244 8.74191 28.9667 8.59375 28.5938 8.59375H1.40625C1.03329 8.59375 0.675604 8.74191 0.411881 9.00563C0.148158 9.26935 0 9.62704 0 10H0ZM1.40625 3.4375C1.03329 3.4375 0.675604 3.28934 0.411881 3.02562C0.148158 2.76189 0 2.40421 0 2.03125C0 1.65829 0.148158 1.30061 0.411881 1.03688C0.675604 0.773159 1.03329 0.625 1.40625 0.625H28.5938C28.9667 0.625 29.3244 0.773159 29.5881 1.03688C29.8518 1.30061 30 1.65829 30 2.03125C30 2.40421 29.8518 2.76189 29.5881 3.02562C29.3244 3.28934 28.9667 3.4375 28.5938 3.4375H1.40625Z" fill="white"/>
</svg>
