<svg width="30" height="30" viewBox="0 0 20 20" fill="none" xmlns="http://www.w3.org/2000/svg">
<path d="M13.6205 7.28003L11.0872 9.75L13.6205 12.22C13.9211 12.513 13.9211 12.988 13.6205 13.281C13.4708 13.427 13.2738 13.501 13.0769 13.501C12.88 13.501 12.683 13.428 12.5333 13.281L10 10.811L7.4667 13.281C7.31695 13.427 7.12 13.501 6.92308 13.501C6.72615 13.501 6.5292 13.428 6.37946 13.281C6.07894 12.988 6.07894 12.513 6.37946 12.22L8.91282 9.75L6.37946 7.28003C6.07894 6.98703 6.07894 6.51199 6.37946 6.21899C6.67997 5.92599 7.16719 5.92599 7.4677 6.21899L10.001 8.68903L12.5344 6.21899C12.8349 5.92599 13.322 5.92599 13.6225 6.21899C13.9231 6.51199 13.9211 6.98703 13.6205 7.28003ZM20 6.75V12.75C20 16.472 16.8944 19.5 13.0769 19.5H6.92308C3.10564 19.5 0 16.472 0 12.75V6.75C0 3.028 3.10564 0 6.92308 0H13.0769C16.8944 0 20 3.028 20 6.75ZM18.4615 6.75C18.4615 3.855 16.0462 1.5 13.0769 1.5H6.92308C3.95385 1.5 1.53846 3.855 1.53846 6.75V12.75C1.53846 15.645 3.95385 18 6.92308 18H13.0769C16.0462 18 18.4615 15.645 18.4615 12.75V6.75Z" fill="#fff"/>
</svg>
