<svg width="32" height="32" viewBox="0 0 32 32" fill="none" xmlns="http://www.w3.org/2000/svg">
<path d="M7.36033 1.0428C5.13802 1.0428 4.02686 2.19936 4.02686 3.35592C4.02686 4.51248 5.13802 5.66904 6.24917 5.66904C4.02686 5.66904 2.9157 6.8256 2.9157 7.98216C2.9157 9.13872 4.02686 10.2953 5.13802 10.2953C2.9157 10.2953 1.80455 11.4518 1.80455 12.6084C1.80455 13.765 2.92178 14.9152 4.03293 14.9152C1.81062 14.9152 0.699463 16.0654 0.699463 17.222C0.699463 18.3786 1.81062 19.5351 2.92178 19.5351H11.805C11.2524 21.8482 10.6938 24.155 10.6938 25.3116C10.6938 27.6247 11.805 29.9315 12.3575 30.513C12.3696 30.5256 12.91 31.0881 14.0212 31.0881C15.6849 31.0881 15.6849 29.3564 15.6849 29.3564C15.6849 29.3248 16.2374 26.4682 16.2374 25.3116C16.2374 24.155 18.4597 19.5351 19.5709 18.3786L20.6821 17.8034V1.62424L19.5709 1.04912H7.36033V1.0428ZM22.7951 0L21.7932 2.19936V17.222L22.9044 18.3786H31.6357C31.7268 17.6202 31.7875 16.8491 31.7875 16.0654C31.7875 9.18296 28.1626 3.18528 22.7951 0Z" fill="#1683F0"/>
</svg>
