<svg width="50" height="50" viewBox="0 0 50 50" fill="none" xmlns="http://www.w3.org/2000/svg">
<circle cx="25" cy="25" r="25" fill="#1683F0"/>
<path d="M25 8.33325C22.8113 8.33325 20.6441 8.77505 18.622 9.63342C16.5999 10.4918 14.7626 11.7499 13.2149 13.336C10.0893 16.5392 8.33337 20.8837 8.33337 25.4137C8.33337 32.9633 13.1167 39.3684 19.7334 41.6401C20.5667 41.7768 20.8334 41.2473 20.8334 40.7861V37.8995C16.2167 38.9243 15.2334 35.6107 15.2334 35.6107C14.4667 33.6294 13.3834 33.0999 13.3834 33.0999C11.8667 32.0409 13.5 32.0751 13.5 32.0751C15.1667 32.1946 16.05 33.8344 16.05 33.8344C17.5 36.4306 19.95 35.662 20.9 35.252C21.05 34.1418 21.4834 33.3903 21.95 32.9633C18.25 32.5362 14.3667 31.0673 14.3667 24.5597C14.3667 22.6637 15 21.1436 16.0834 19.9309C15.9167 19.5039 15.3334 17.7275 16.25 15.4216C16.25 15.4216 17.65 14.9605 20.8334 17.1638C22.15 16.7881 23.5834 16.6002 25 16.6002C26.4167 16.6002 27.85 16.7881 29.1667 17.1638C32.35 14.9605 33.75 15.4216 33.75 15.4216C34.6667 17.7275 34.0834 19.5039 33.9167 19.9309C35 21.1436 35.6334 22.6637 35.6334 24.5597C35.6334 31.0844 31.7334 32.5192 28.0167 32.9462C28.6167 33.4757 29.1667 34.5176 29.1667 36.1061V40.7861C29.1667 41.2473 29.4334 41.7938 30.2834 41.6401C36.9 39.3513 41.6667 32.9633 41.6667 25.4137C41.6667 23.1707 41.2356 20.9496 40.398 18.8773C39.5605 16.805 38.3328 14.9221 36.7852 13.336C35.2375 11.7499 33.4002 10.4918 31.3781 9.63342C29.356 8.77505 27.1887 8.33325 25 8.33325Z" fill="white"/>
</svg>
