<svg width="29" height="29" viewBox="0 0 29 29" fill="none" xmlns="http://www.w3.org/2000/svg">
<path d="M14.6554 -6.62804e-05C12.8094 -6.62804e-05 10.9815 0.372555 9.276 1.09652C7.57053 1.82049 6.0209 2.88163 4.71558 4.21935C2.07939 6.92099 0.598389 10.5852 0.598389 14.4059C0.598389 20.7734 4.63274 26.1756 10.2134 28.0916C10.9162 28.2068 11.1411 27.7603 11.1411 27.3713V24.9367C7.24734 25.801 6.41798 23.0063 6.41798 23.0063C5.77136 21.3352 4.85766 20.8886 4.85766 20.8886C3.57847 19.9954 4.95605 20.0242 4.95605 20.0242C6.36175 20.1251 7.10677 21.5081 7.10677 21.5081C8.32973 23.6978 10.3961 23.0495 11.1974 22.7038C11.3239 21.7674 11.6894 21.1335 12.0829 20.7734C8.96229 20.4132 5.68702 19.1743 5.68702 13.6856C5.68702 12.0865 6.22118 10.8044 7.13489 9.78159C6.99432 9.42144 6.50232 7.92322 7.27546 5.97841C7.27546 5.97841 8.45624 5.58945 11.1411 7.44782C12.2516 7.13089 13.4605 6.97243 14.6554 6.97243C15.8502 6.97243 17.0591 7.13089 18.1696 7.44782C20.8545 5.58945 22.0353 5.97841 22.0353 5.97841C22.8084 7.92322 22.3164 9.42144 22.1759 9.78159C23.0896 10.8044 23.6237 12.0865 23.6237 13.6856C23.6237 19.1887 20.3344 20.3988 17.1997 20.7589C17.7057 21.2055 18.1696 22.0843 18.1696 23.4241V27.3713C18.1696 27.7603 18.3945 28.2212 19.1114 28.0916C24.6921 26.1612 28.7124 20.7734 28.7124 14.4059C28.7124 12.5141 28.3488 10.6408 27.6423 8.89298C26.9359 7.14517 25.9005 5.55707 24.5952 4.21935C23.2899 2.88163 21.7402 1.82049 20.0347 1.09652C18.3293 0.372555 16.5014 -6.62804e-05 14.6554 -6.62804e-05Z" fill="#031D36"/>
</svg>
