<svg width="29" height="29" viewBox="0 0 29 29" fill="none" xmlns="http://www.w3.org/2000/svg">
<path d="M8.15305 0H19.9609C24.4592 0 28.114 3.65482 28.114 8.15305V19.9609C28.114 22.1232 27.255 24.197 25.726 25.726C24.197 27.255 22.1232 28.114 19.9609 28.114H8.15305C3.65482 28.114 0 24.4592 0 19.9609V8.15305C0 5.99073 0.85898 3.91697 2.38797 2.38797C3.91697 0.85898 5.99073 0 8.15305 0ZM7.87191 2.8114C6.52978 2.8114 5.24262 3.34456 4.29359 4.29359C3.34456 5.24262 2.8114 6.52978 2.8114 7.87191V20.2421C2.8114 23.0394 5.07457 25.3026 7.87191 25.3026H20.2421C21.5842 25.3026 22.8714 24.7694 23.8204 23.8204C24.7694 22.8714 25.3026 21.5842 25.3026 20.2421V7.87191C25.3026 5.07457 23.0394 2.8114 20.2421 2.8114H7.87191ZM21.4369 4.91994C21.9029 4.91994 22.3499 5.10507 22.6794 5.43459C23.0089 5.76412 23.194 6.21105 23.194 6.67707C23.194 7.14309 23.0089 7.59002 22.6794 7.91954C22.3499 8.24907 21.9029 8.43419 21.4369 8.43419C20.9709 8.43419 20.524 8.24907 20.1944 7.91954C19.8649 7.59002 19.6798 7.14309 19.6798 6.67707C19.6798 6.21105 19.8649 5.76412 20.1944 5.43459C20.524 5.10507 20.9709 4.91994 21.4369 4.91994ZM14.057 7.02849C15.9211 7.02849 17.7088 7.76899 19.0269 9.08709C20.345 10.4052 21.0855 12.1929 21.0855 14.057C21.0855 15.9211 20.345 17.7088 19.0269 19.0269C17.7088 20.345 15.9211 21.0855 14.057 21.0855C12.1929 21.0855 10.4052 20.345 9.08709 19.0269C7.76899 17.7088 7.02849 15.9211 7.02849 14.057C7.02849 12.1929 7.76899 10.4052 9.08709 9.08709C10.4052 7.76899 12.1929 7.02849 14.057 7.02849ZM14.057 9.83989C12.9385 9.83989 11.8659 10.2842 11.075 11.075C10.2842 11.8659 9.83989 12.9385 9.83989 14.057C9.83989 15.1754 10.2842 16.2481 11.075 17.0389C11.8659 17.8298 12.9385 18.2741 14.057 18.2741C15.1754 18.2741 16.2481 17.8298 17.0389 17.0389C17.8298 16.2481 18.2741 15.1754 18.2741 14.057C18.2741 12.9385 17.8298 11.8659 17.0389 11.075C16.2481 10.2842 15.1754 9.83989 14.057 9.83989Z" fill="#031D36"/>
</svg>
