<svg width="32" height="32" viewBox="0 0 32 32" fill="none" xmlns="http://www.w3.org/2000/svg">
<path d="M0.151797 12.7095C0.0607189 13.4679 0 14.239 0 15.0226C0 21.9114 3.62492 27.9091 8.99247 31.0881L9.99433 28.8887V13.8661L8.88318 12.7095H0.151797ZM31.0881 13.8661C31.0881 12.7095 29.9769 11.553 28.8658 11.553H19.9826C20.5351 9.23984 21.0938 6.93304 21.0938 5.77648C21.0938 3.46336 19.9826 1.15656 19.4301 0.57512C19.4179 0.56248 18.8775 0 17.7664 0C16.1027 0 16.1027 1.73168 16.1027 1.73168C16.1027 1.76328 15.5501 4.61992 15.5501 5.77648C15.5501 6.93304 13.3278 11.553 12.2166 12.7095L11.1055 13.2846V29.4638L12.2166 30.039H24.4272C26.6495 30.039 27.7607 28.8824 27.7607 27.7258C27.7607 26.5693 26.6495 25.4127 25.5384 25.4127C27.7607 25.4127 28.8718 24.2562 28.8718 23.0996C28.8718 21.943 27.7607 20.7865 26.6495 20.7865C28.8718 20.7865 29.983 19.6299 29.983 18.4734C29.983 17.3168 28.8718 16.1602 27.7607 16.1602C29.9769 16.1792 31.0881 15.0226 31.0881 13.8661Z" fill="#1683F0"/>
</svg>
