<svg width="30" height="29" viewBox="0 0 30 29" fill="none" xmlns="http://www.w3.org/2000/svg">
<path d="M22.2657 10.7905L29.1112 13.7882V13.6327C29.0128 13.2933 28.7176 12.9964 28.1272 12.4025L25.316 9.57437L22.4063 10.8046L22.2657 10.7905ZM15.336 7.34016C15.4524 7.54525 15.5287 7.77083 15.5609 8.00477L19.7778 9.8289C19.9034 9.74332 20.0407 9.67663 20.1854 9.63093L20.8601 5.38877L18.0489 2.56066L15.3079 7.22704C15.3079 7.22704 15.3079 7.29774 15.336 7.34016ZM13.101 7.00079C13.2952 6.843 13.5245 6.73486 13.7693 6.68561C14.0141 6.63636 14.2671 6.64747 14.5067 6.71798H14.5769L17.6131 1.99504L16.6854 1.06176C16.095 0.467856 15.7998 0.170905 15.4625 0.0719209C15.175 -0.024062 14.8644 -0.024062 14.5769 0.0719209C14.2396 0.170905 13.9444 0.467856 13.3541 1.06176L9.13716 5.30392C9.57291 5.50189 12.6512 6.80282 13.0448 6.98665L13.101 7.00079ZM8.71547 14.4811H9.09499C9.23053 14.4674 9.36709 14.4674 9.50262 14.4811L12.848 9.27741V9.19257C12.6746 9.02086 12.5484 8.80679 12.4819 8.57132C12.4154 8.33584 12.4108 8.08703 12.4685 7.84922L10.838 7.00079L8.4484 5.96853L5.21545 9.27741L8.74358 14.4529L8.71547 14.4811ZM19.4264 11.0308V10.9177C19.4186 10.852 19.4186 10.7855 19.4264 10.7198L15.4063 8.9239H15.336C15.2008 9.12919 15.0169 9.29742 14.801 9.41343C14.5851 9.52945 14.3438 9.58961 14.099 9.58851H13.8601C13.8601 9.58851 13.7898 9.58851 13.7757 9.65921L10.4585 14.7781V14.8488L19.3561 11.0308C19.3561 11.0308 19.4264 11.0591 19.4264 11.0308ZM21.338 9.74405C21.4761 9.80875 21.6003 9.90002 21.7035 10.0127L24.5148 8.82492L21.8581 6.18064L21.2959 9.67335L21.338 9.74405ZM18.1191 17.5779C18.2305 17.3689 18.397 17.195 18.6004 17.0752C18.8038 16.9554 19.0361 16.8945 19.2718 16.8992V16.8285L20.0308 12.0631L19.9043 11.95L10.838 15.6972C10.8819 15.8225 10.9194 15.9499 10.9504 16.079L18.1191 17.5779ZM18.0629 18.497L10.7255 16.8992V16.984L17.1211 26.7976L17.7115 26.1895C17.9223 24.8886 18.7095 20.0667 18.8079 19.5152C18.6063 19.4255 18.4315 19.2843 18.3008 19.1057C18.1702 18.9272 18.0882 18.7173 18.0629 18.497ZM20.3822 18.9495C20.2493 19.1188 20.0749 19.2503 19.8762 19.3313L18.9766 24.9027L24.0931 19.7273L20.3822 18.9495ZM21.8862 11.6954C21.873 11.6892 21.8586 11.6859 21.8441 11.6859C21.8295 11.6859 21.8151 11.6892 21.8019 11.6954C21.59 11.9628 21.282 12.1356 20.9445 12.1762V12.2611L20.1714 17.0689C20.307 17.1738 20.4194 17.3059 20.5017 17.4568C20.584 17.6077 20.6342 17.7741 20.6493 17.9456H20.7336L24.8802 18.8081L28.0851 15.5841C28.4292 15.2724 28.7358 14.9212 28.9987 14.5377L21.8862 11.6954ZM9.85403 17.7335C9.46335 17.8749 9.03588 17.8749 8.64519 17.7335L6.93032 20.4202L13.5227 27.0379C13.8553 27.4557 14.2721 27.7979 14.7456 28.0419C15.0331 28.1379 15.3437 28.1379 15.6312 28.0419C16.0154 27.8706 16.3529 27.6087 16.6151 27.2783L10.0227 17.6628L9.85403 17.7335ZM7.16928 16.3194C7.16928 16.3194 7.25362 16.3194 7.25362 16.2487C7.25362 16.178 7.25362 16.2487 7.16928 16.2487L1.34997 15.0326C1.57546 15.2996 1.81475 15.5545 2.06684 15.7962L3.9785 17.7193L7.16928 16.3053V16.3194ZM7.56285 15.3861C7.63558 15.2445 7.73051 15.1156 7.84398 15.0043V14.9195C6.76165 13.2226 5.63714 11.5823 4.51264 9.92788L2.05278 12.4025C1.46242 12.9964 1.16724 13.2933 1.06884 13.6327C1.01493 13.7722 0.99098 13.9216 0.998562 14.0711L7.56285 15.4851V15.3861ZM7.80181 17.2668C7.7644 17.2231 7.73143 17.1757 7.70342 17.1254L4.63914 18.3132L6.15722 19.8687L7.80181 17.2951C7.80181 17.2951 7.81587 17.2668 7.80181 17.2668Z" fill="#031D36"/>
</svg>
