<svg width="50" height="50" viewBox="0 0 50 50" fill="none" xmlns="http://www.w3.org/2000/svg">
<path d="M50 25C50 38.8071 38.8071 50 25 50C11.1929 50 -1.03411e-05 38.8071 -1.03411e-05 25C-1.03411e-05 11.1929 11.1929 -3.29513e-06 25 -3.29513e-06C38.8071 -3.29513e-06 50 11.1929 50 25Z" fill="#1683F0"/>
<path d="M33.5503 21.127L41.6666 24.6814V24.4969C41.5499 24.0946 41.1999 23.7425 40.5 23.0383L37.1668 19.6852L33.717 21.1438L33.5503 21.127ZM25.334 17.0362C25.472 17.2794 25.5626 17.5468 25.6007 17.8242L30.6005 19.987C30.7494 19.8855 30.9122 19.8064 31.0838 19.7522L31.8837 14.7225L28.5506 11.3694L25.3007 16.9021C25.3007 16.9021 25.3007 16.9859 25.334 17.0362ZM22.6842 16.6338C22.9144 16.4467 23.1863 16.3185 23.4765 16.2601C23.7667 16.2017 24.0667 16.2149 24.3508 16.2985H24.4341L28.0339 10.6987L26.934 9.59221C26.234 8.88804 25.884 8.53596 25.484 8.4186C25.1432 8.3048 24.7749 8.3048 24.4341 8.4186C24.0341 8.53596 23.6841 8.88804 22.9842 9.59221L17.9844 14.6219C18.501 14.8566 22.1509 16.3991 22.6175 16.617L22.6842 16.6338ZM17.4844 25.5029H17.9344C18.0951 25.4866 18.257 25.4866 18.4177 25.5029L22.3842 19.3331V19.2325C22.1786 19.0289 22.029 18.7751 21.9501 18.4959C21.8712 18.2167 21.8658 17.9217 21.9342 17.6398L20.001 16.6338L17.1678 15.4099L13.3346 19.3331L17.5178 25.4694L17.4844 25.5029ZM30.1838 21.4121V21.2779C30.1746 21.2 30.1746 21.1212 30.1838 21.0432L25.4174 18.914H25.334C25.1737 19.1574 24.9557 19.3568 24.6997 19.4944C24.4437 19.6319 24.1577 19.7033 23.8675 19.7019H23.5841C23.5841 19.7019 23.5008 19.7019 23.4841 19.7858L19.551 25.855V25.9388L30.1005 21.4121C30.1005 21.4121 30.1838 21.4456 30.1838 21.4121ZM32.4504 19.8864C32.6141 19.9631 32.7613 20.0713 32.8837 20.2049L36.2168 18.7966L33.067 15.6614L32.4004 19.8025L32.4504 19.8864ZM28.6339 29.1746C28.7659 28.9268 28.9633 28.7205 29.2045 28.5785C29.4456 28.4365 29.7211 28.3643 30.0005 28.3698V28.286L30.9004 22.6359L30.7504 22.5018L20.001 26.9447C20.053 27.0933 20.0975 27.2443 20.1343 27.3974L28.6339 29.1746ZM28.5672 30.2644L19.8676 28.3698V28.4704L27.4506 40.1058L28.1506 39.3849C28.4006 37.8425 29.3339 32.1254 29.4505 31.4715C29.2115 31.3651 29.0043 31.1978 28.8493 30.9861C28.6944 30.7743 28.5972 30.5255 28.5672 30.2644ZM31.3171 30.8009C31.1595 31.0015 30.9527 31.1575 30.7171 31.2535L29.6505 37.8592L35.7169 31.723L31.3171 30.8009ZM33.1003 22.2C33.0847 22.1926 33.0676 22.1887 33.0503 22.1887C33.033 22.1887 33.016 22.1926 33.0003 22.2C32.7491 22.5171 32.3839 22.7219 31.9837 22.7701V22.8707L31.0671 28.571C31.2279 28.6954 31.3612 28.8521 31.4588 29.031C31.5563 29.2099 31.6159 29.4072 31.6337 29.6105H31.7337L36.6502 30.6332L40.45 26.8106C40.858 26.441 41.2215 26.0246 41.5333 25.57L33.1003 22.2ZM18.8344 29.359C18.3711 29.5267 17.8643 29.5267 17.4011 29.359L15.3679 32.5445L23.1842 40.3909C23.5785 40.8862 24.0726 41.2919 24.6341 41.5812C24.9749 41.695 25.3432 41.695 25.684 41.5812C26.1396 41.3782 26.5398 41.0676 26.8506 40.6759L19.0344 29.2752L18.8344 29.359ZM15.6512 27.6824C15.6512 27.6824 15.7512 27.6824 15.7512 27.5986C15.7512 27.5148 15.7512 27.5986 15.6512 27.5986L8.75152 26.1568C9.01888 26.4733 9.30259 26.7755 9.60148 27.0621L11.868 29.3422L15.6512 27.6657V27.6824ZM16.1178 26.5759C16.2041 26.408 16.3166 26.2551 16.4511 26.1232V26.0226C15.1679 24.0107 13.8346 22.0659 12.5013 20.1043L9.58482 23.0383C8.88485 23.7425 8.53487 24.0946 8.41821 24.4969C8.35429 24.6623 8.32589 24.8395 8.33488 25.0167L16.1178 26.6933V26.5759ZM16.4011 28.8057C16.3568 28.7539 16.3177 28.6978 16.2845 28.6381L12.6513 30.0464L14.4512 31.8906L16.4011 28.8393C16.4011 28.8393 16.4178 28.8057 16.4011 28.8057Z" fill="white"/>
</svg>
