<svg width="29" height="29" viewBox="0 0 29 29" fill="none" xmlns="http://www.w3.org/2000/svg">
<path d="M14.2564 -6.62804e-05C6.49699 -6.62804e-05 0.199463 6.29746 0.199463 14.0569C0.199463 21.8164 6.49699 28.1139 14.2564 28.1139C22.0159 28.1139 28.3134 21.8164 28.3134 14.0569C28.3134 6.29746 22.0159 -6.62804e-05 14.2564 -6.62804e-05ZM20.7789 9.55868C20.568 11.7797 19.6543 17.1776 19.1905 19.6657C18.9937 20.7199 18.6001 21.0714 18.2346 21.1135C17.4193 21.1838 16.8008 20.5794 16.0136 20.0593C14.7766 19.2439 14.0737 18.7379 12.8789 17.9507C11.4872 17.037 12.3869 16.5309 13.1881 15.7156C13.399 15.5048 16.9976 12.2295 17.0678 11.9343C17.0776 11.8896 17.0763 11.8432 17.0641 11.7991C17.0518 11.755 17.029 11.7146 16.9976 11.6813C16.9132 11.611 16.8008 11.6391 16.7024 11.6532C16.5759 11.6813 14.6079 12.9886 10.7703 15.5751C10.208 15.9546 9.70198 16.1514 9.25216 16.1374C8.74611 16.1233 7.79023 15.8562 7.07333 15.6172C6.18774 15.3361 5.49895 15.1815 5.55517 14.6895C5.58329 14.4365 5.93471 14.1834 6.59539 13.9163C10.7 12.1311 13.4271 10.9503 14.7906 10.388C18.6985 8.75744 19.4997 8.4763 20.0339 8.4763C20.1463 8.4763 20.4134 8.50441 20.5821 8.64498C20.7227 8.75744 20.7648 8.91206 20.7789 9.02452C20.7648 9.10886 20.7929 9.36189 20.7789 9.55868Z" fill="#031D36"/>
</svg>
